<?xml version="1.0" standalone="no"?>
<!DOCTYPE svg PUBLIC "-//W3C//DTD SVG 20010904//EN"
 "http://www.w3.org/TR/2001/REC-SVG-20010904/DTD/svg10.dtd">
<svg version="1.0" xmlns="http://www.w3.org/2000/svg"
 width="1920.000000pt" height="1920.000000pt" viewBox="0 0 1920.000000 1920.000000"
 preserveAspectRatio="xMidYMid meet">
<metadata>
Created by potrace 1.11, written by Peter Selinger 2001-2013
</metadata>
<g transform="translate(0.000000,1920.000000) scale(0.100000,-0.100000)"
fill="#000000" stroke="none">
<path d="M11685 16175 c-104 -180 -213 -366 -241 -413 -279 -479 -445 -760
-484 -827 -52 -88 -483 -821 -510 -870 -10 -16 -93 -158 -185 -315 -92 -157
-224 -383 -293 -502 -70 -120 -129 -217 -132 -217 -4 -1 -350 603 -521 908
-14 25 -90 159 -169 296 -79 138 -153 268 -166 290 -12 22 -136 240 -276 485
-139 245 -379 667 -533 938 l-280 493 -330 -6 c-181 -3 -384 -8 -450 -10 -66
-2 -257 -7 -425 -10 -168 -3 -366 -8 -440 -10 -74 -3 -272 -7 -440 -10 -168
-3 -359 -7 -425 -10 -66 -2 -262 -7 -435 -10 -173 -3 -369 -8 -435 -10 -66 -2
-262 -7 -435 -10 -173 -3 -369 -8 -435 -10 -66 -2 -268 -7 -450 -11 -368 -6
-516 -11 -521 -16 -2 -2 93 -143 210 -314 233 -336 374 -540 478 -692 36 -53
76 -110 88 -127 12 -16 192 -277 400 -580 208 -302 388 -563 400 -580 17 -24
448 -648 692 -1003 24 -35 59 -85 78 -112 19 -27 91 -131 160 -232 107 -156
403 -586 588 -853 31 -44 191 -276 356 -515 165 -239 329 -478 365 -530 36
-52 86 -125 111 -161 25 -37 215 -312 423 -613 207 -301 377 -551 377 -557 0
-5 -71 -113 -157 -239 -87 -127 -251 -366 -365 -532 -114 -167 -225 -328 -246
-358 -22 -30 -182 -264 -357 -520 -175 -256 -341 -499 -370 -540 -28 -41 -103
-149 -165 -240 -62 -91 -137 -199 -165 -240 -29 -41 -141 -205 -250 -365 -109
-159 -223 -326 -254 -370 -53 -76 -134 -196 -277 -405 -69 -100 -150 -219
-354 -515 -68 -99 -169 -246 -224 -327 -56 -81 -174 -254 -264 -385 -90 -131
-201 -294 -248 -362 -47 -68 -120 -174 -162 -235 -42 -61 -110 -161 -152 -221
-41 -61 -126 -185 -188 -275 -550 -801 -771 -1125 -768 -1128 5 -4 271 -9
1061 -17 341 -3 753 -8 915 -10 162 -2 565 -7 895 -10 330 -3 717 -8 860 -10
143 -2 557 -7 920 -10 l660 -6 175 313 c96 172 241 432 323 578 82 146 160
285 174 310 14 25 87 155 163 290 76 135 151 268 167 296 297 534 1029 1833
1033 1833 3 0 89 -142 192 -317 329 -559 918 -1555 950 -1607 17 -27 39 -64
49 -82 10 -17 113 -193 230 -390 240 -404 385 -651 574 -972 l130 -221 2658 0
c2124 0 2657 3 2651 13 -5 6 -101 147 -214 312 -113 165 -236 345 -273 400
-38 55 -129 188 -202 295 -74 107 -172 251 -219 320 -47 69 -113 166 -147 215
-198 288 -446 650 -924 1350 -90 132 -568 831 -664 970 -45 66 -234 342 -419
613 -185 271 -395 577 -466 680 -71 103 -170 248 -221 322 -94 138 -546 799
-663 970 -36 52 -181 265 -324 472 -142 207 -258 382 -258 388 0 6 77 122 172
258 199 288 142 205 763 1102 269 388 514 741 544 786 75 108 314 453 431 622
53 75 125 180 161 232 36 52 402 581 814 1175 411 594 898 1296 1080 1560 183
264 443 640 578 834 136 195 245 356 243 358 -5 5 -213 10 -671 18 -209 3
-490 8 -625 10 -135 3 -373 7 -530 10 -157 3 -429 7 -605 10 -176 3 -417 7
-535 10 -118 3 -390 7 -605 10 -214 3 -455 8 -535 10 -80 2 -343 7 -585 10
l-440 6 -190 -326z"/>
</g>
</svg>
